<?xml version="1.0" encoding="utf-8"?>
<!-- Generator: Adobe Illustrator 23.0.1, SVG Export Plug-In . SVG Version: 6.00 Build 0)  -->
<svg version="1.1" xmlns="http://www.w3.org/2000/svg" xmlns:xlink="http://www.w3.org/1999/xlink" x="0px" y="0px"
	 viewBox="0 0 850.39 850.39" style="enable-background:new 0 0 850.39 850.39;" xml:space="preserve">
<style type="text/css">
	.st0{display:none;}
	.st1{display:inline;fill:none;stroke:#000000;stroke-miterlimit:10;}
	.st2{display:inline;fill:none;stroke:#E60012;stroke-miterlimit:10;}
	.st3{fill:#FFF100;}
	.st4{fill:#242525;}
	.st5{fill:#0A3583;}
	.st6{fill:#24873B;}
</style>
<g id="レイヤー_1" class="st0">
	<rect x="70.87" y="70.87" class="st1" width="708.66" height="708.66"/>
	<line class="st1" x1="425.2" y1="602.36" x2="70.87" y2="248.03"/>
	<line class="st1" x1="425.2" y1="425.2" x2="70.87" y2="70.87"/>
	<line class="st1" x1="779.53" y1="248.03" x2="425.2" y2="602.36"/>
	<line class="st1" x1="779.53" y1="212.6" x2="425.2" y2="566.93"/>
	<line class="st1" x1="779.53" y1="70.87" x2="425.2" y2="425.2"/>
	<rect x="779.53" class="st1" width="70.87" height="70.87"/>
	<rect x="708.66" y="70.87" class="st1" width="70.87" height="70.87"/>
	<rect x="425.2" y="425.2" class="st1" width="70.87" height="70.87"/>
	<rect x="354.33" y="354.33" class="st1" width="70.87" height="70.87"/>
	<rect x="248.03" y="70.87" class="st1" width="354.33" height="354.33"/>
	<rect x="248.03" y="70.87" class="st1" width="88.58" height="177.17"/>
	<rect x="513.78" y="70.87" class="st1" width="88.58" height="177.17"/>
	<rect x="496.06" y="496.06" class="st1" width="88.58" height="177.16"/>
	<rect x="248.03" y="70.87" class="st1" width="177.17" height="88.58"/>
	<rect x="425.2" y="159.45" class="st1" width="177.16" height="88.58"/>
</g>
<g id="レイヤー_3" class="st0">
	<rect x="70.87" y="70.87" class="st1" width="88.58" height="88.58"/>
	<rect x="159.45" y="70.87" class="st1" width="88.58" height="88.58"/>
	<rect x="248.03" y="70.87" class="st1" width="88.58" height="88.58"/>
	<rect x="336.61" y="70.87" class="st1" width="88.58" height="88.58"/>
	<rect x="425.2" y="70.87" class="st1" width="88.58" height="88.58"/>
	<rect x="513.78" y="70.87" class="st1" width="88.58" height="88.58"/>
	<rect x="602.36" y="70.87" class="st1" width="88.58" height="88.58"/>
	<rect x="690.95" y="70.87" class="st1" width="88.58" height="88.58"/>
	<rect x="70.87" y="159.45" class="st1" width="88.58" height="88.58"/>
	<rect x="159.45" y="159.45" class="st1" width="88.58" height="88.58"/>
	<rect x="248.03" y="159.45" class="st1" width="88.58" height="88.58"/>
	<rect x="336.61" y="159.45" class="st1" width="88.58" height="88.58"/>
	<rect x="425.2" y="159.45" class="st1" width="88.58" height="88.58"/>
	<rect x="513.78" y="159.45" class="st1" width="88.58" height="88.58"/>
	<rect x="602.36" y="159.45" class="st1" width="88.58" height="88.58"/>
	<rect x="690.95" y="159.45" class="st1" width="88.58" height="88.58"/>
	<rect x="70.87" y="248.03" class="st1" width="88.58" height="88.58"/>
	<rect x="159.45" y="248.03" class="st1" width="88.58" height="88.58"/>
	<rect x="248.03" y="248.03" class="st1" width="88.58" height="88.58"/>
	<rect x="336.61" y="248.03" class="st1" width="88.58" height="88.58"/>
	<rect x="425.2" y="248.03" class="st1" width="88.58" height="88.58"/>
	<rect x="513.78" y="248.03" class="st1" width="88.58" height="88.58"/>
	<rect x="602.36" y="248.03" class="st1" width="88.58" height="88.58"/>
	<rect x="690.95" y="248.03" class="st1" width="88.58" height="88.58"/>
	<rect x="70.87" y="336.61" class="st1" width="88.58" height="88.58"/>
	<rect x="159.45" y="336.61" class="st1" width="88.58" height="88.58"/>
	<rect x="248.03" y="336.61" class="st1" width="88.58" height="88.58"/>
	<rect x="336.61" y="336.61" class="st1" width="88.58" height="88.58"/>
	<rect x="425.2" y="336.61" class="st1" width="88.58" height="88.58"/>
	<rect x="513.78" y="336.61" class="st1" width="88.58" height="88.58"/>
	<rect x="602.36" y="336.61" class="st1" width="88.58" height="88.58"/>
	<rect x="690.95" y="336.61" class="st1" width="88.58" height="88.58"/>
	<rect x="70.87" y="425.2" class="st1" width="88.58" height="88.58"/>
	<rect x="159.45" y="425.2" class="st1" width="88.58" height="88.58"/>
	<rect x="248.03" y="425.2" class="st1" width="88.58" height="88.58"/>
	<rect x="336.61" y="425.2" class="st1" width="88.58" height="88.58"/>
	<rect x="425.2" y="425.2" class="st1" width="88.58" height="88.58"/>
	<rect x="513.78" y="425.2" class="st1" width="88.58" height="88.58"/>
	<rect x="602.36" y="425.2" class="st1" width="88.58" height="88.58"/>
	<rect x="690.95" y="425.2" class="st1" width="88.58" height="88.58"/>
	<rect x="70.87" y="513.78" class="st1" width="88.58" height="88.58"/>
	<rect x="159.45" y="513.78" class="st1" width="88.58" height="88.58"/>
	<rect x="248.03" y="513.78" class="st1" width="88.58" height="88.58"/>
	<rect x="336.61" y="513.78" class="st1" width="88.58" height="88.58"/>
	<rect x="425.2" y="513.78" class="st1" width="88.58" height="88.58"/>
	<rect x="513.78" y="513.78" class="st1" width="88.58" height="88.58"/>
	<rect x="602.36" y="513.78" class="st1" width="88.58" height="88.58"/>
	<rect x="690.95" y="513.78" class="st1" width="88.58" height="88.58"/>
	<rect x="70.87" y="602.36" class="st1" width="88.58" height="88.58"/>
	<rect x="159.45" y="602.36" class="st1" width="88.58" height="88.58"/>
	<rect x="248.03" y="602.36" class="st1" width="88.58" height="88.58"/>
	<rect x="336.61" y="602.36" class="st1" width="88.58" height="88.58"/>
	<rect x="425.2" y="602.36" class="st1" width="88.58" height="88.58"/>
	<rect x="513.78" y="602.36" class="st1" width="88.58" height="88.58"/>
	<rect x="602.36" y="602.36" class="st1" width="88.58" height="88.58"/>
	<rect x="690.95" y="602.36" class="st1" width="88.58" height="88.58"/>
	<rect x="70.87" y="690.94" class="st1" width="88.58" height="88.58"/>
	<rect x="159.45" y="690.94" class="st1" width="88.58" height="88.58"/>
	<rect x="248.03" y="690.94" class="st1" width="88.58" height="88.58"/>
	<rect x="336.61" y="690.94" class="st1" width="88.58" height="88.58"/>
	<rect x="425.2" y="690.94" class="st1" width="88.58" height="88.58"/>
	<rect x="513.78" y="690.94" class="st1" width="88.58" height="88.58"/>
	<rect x="602.36" y="690.94" class="st1" width="88.58" height="88.58"/>
	<rect x="690.95" y="690.94" class="st1" width="88.58" height="88.58"/>
	<line class="st2" x1="469.49" y1="70.87" x2="469.49" y2="779.53"/>
	<line class="st2" x1="380.91" y1="70.87" x2="380.91" y2="779.53"/>
</g>
<g id="レイヤー_2">
	<path class="st3" d="M513.78,115.16l221.46,221.46c0,0,44.29,44.29,44.29,88.58s-44.29,88.58-44.29,88.58L513.78,735.23
		c0,0-44.29,44.29-88.58,44.29s-88.58-44.29-88.58-44.29L115.16,513.78c0,0-44.29-44.29-44.29-88.58s44.29-88.58,44.29-88.58
		l221.46-221.46c0,0,44.29-44.29,88.58-44.29S513.78,115.16,513.78,115.16z"/>
	<path d="M425.2,792.03c-48.91,0-95.46-45.99-97.42-47.95L106.32,522.62c-1.96-1.96-47.95-48.51-47.95-97.42
		c0-48.91,45.99-95.46,47.95-97.42l221.46-221.46c1.96-1.96,48.52-47.95,97.42-47.95c48.91,0,95.46,45.99,97.42,47.95l221.46,221.46
		c1.96,1.96,47.95,48.51,47.95,97.42c0,48.91-45.99,95.46-47.95,97.42L522.62,744.07C520.66,746.03,474.1,792.03,425.2,792.03z
		 M425.2,83.37c-38.49,0-79.34,40.23-79.75,40.64L124,345.45c-0.4,0.4-40.63,41.25-40.63,79.74c0,38.49,40.23,79.35,40.64,79.75
		L345.45,726.4c0.4,0.4,41.25,40.63,79.74,40.63c38.49,0,79.34-40.23,79.75-40.64L726.4,504.94c0.4-0.4,40.63-41.25,40.63-79.74
		c0-32.09-29.33-68.44-40.63-79.74L504.94,124C504.54,123.6,463.69,83.37,425.2,83.37z"/>
	<path d="M595.16,325.21c-15.87-26.92-38.01-49.76-64.33-66.5l51.26-39.18c-48.74,7.17-115.65,0.51-165.94-10.53
		c30.94,41.17,64.81,99.25,78.56,146.56l14.41-63.27c45.34,28.7,73.26,79.05,73.26,132.9c0,86.66-70.5,157.16-157.17,157.16
		c-86.66,0-157.17-70.5-157.17-157.16c0-55.94,30.12-108.11,78.59-136.15l-20.03-34.62c-29.42,17.02-54.1,41.5-71.36,70.78
		c-17.8,30.19-27.2,64.77-27.2,99.99c0,108.72,88.45,197.16,197.17,197.16c108.72,0,197.17-88.45,197.17-197.16
		C622.36,389.98,612.96,355.4,595.16,325.21z"/>
</g>
<g id="レイヤー_4">
	<g>
		<g>
			<path class="st4" d="M-798.41,128.22h-4.62v-2.07l4.62-0.18v-1.35c0-3.93,2.1-6.57,6.54-6.57c1.59,0,3.12,0.3,4.68,0.96
				l-0.66,2.07c-1.29-0.6-2.34-0.78-3.75-0.78c-2.88,0-4.08,1.62-4.08,4.23v1.44h6.78v2.25h-6.78v13.95h-2.73V128.22z"/>
			<path class="st4" d="M-784.46,134.1c0-5.4,3.75-8.52,8.01-8.52s8.01,3.12,8.01,8.52c0,5.37-3.75,8.46-8.01,8.46
				S-784.46,139.47-784.46,134.1z M-771.29,134.1c0-3.72-2.07-6.21-5.16-6.21s-5.16,2.49-5.16,6.21c0,3.69,2.07,6.15,5.16,6.15
				S-771.29,137.79-771.29,134.1z"/>
			<path class="st4" d="M-761.6,125.97h2.31l0.24,3.84h0.09c1.68-2.61,4.23-4.23,7.2-4.23c1.23,0,2.22,0.21,3.21,0.66l-0.63,2.37
				c-1.11-0.36-1.74-0.54-3-0.54c-2.43,0-4.71,1.26-6.66,4.62v9.48h-2.76V125.97z"/>
			<path class="st4" d="M-739.52,132.9c0-6.42,2.88-11.49,7.47-15.09l1.56,1.38c-4.47,3.75-6.54,8.13-6.54,13.71
				c0,5.61,2.07,9.96,6.54,13.74l-1.56,1.38C-736.64,144.42-739.52,139.35-739.52,132.9z"/>
			<path class="st5" d="M-715.91,128.22h-7.5v-2.25h10.26v16.2h-2.76V128.22z M-717.02,120.48c0-1.29,0.93-2.16,2.19-2.16
				s2.22,0.87,2.22,2.16c0,1.26-0.96,2.1-2.22,2.1S-717.02,121.74-717.02,120.48z"/>
			<path class="st5" d="M-703.31,125.97h2.28l0.24,2.76h0.12c1.71-1.77,3.57-3.15,6.09-3.15c3.84,0,5.61,2.28,5.61,6.54v10.05h-2.76
				v-9.69c0-3.06-1.08-4.5-3.72-4.5c-1.92,0-3.21,0.96-5.1,2.88v11.31h-2.76V125.97z"/>
			<path class="st5" d="M-679.52,135.87v-7.65h-4.59v-2.07l4.68-0.18l0.36-5.19h2.31v5.19h7.92v2.25h-7.92v7.68
				c0,2.91,0.96,4.41,4.08,4.41c1.5,0,2.7-0.3,3.9-0.75l0.57,2.04c-1.47,0.54-3.03,0.96-5.07,0.96
				C-677.99,142.56-679.52,139.86-679.52,135.87z"/>
			<path class="st4" d="M-635.87,128.22h-7.5v-2.25h10.26v16.2h-2.76V128.22z M-636.98,120.48c0-1.29,0.93-2.16,2.19-2.16
				s2.22,0.87,2.22,2.16c0,1.26-0.96,2.1-2.22,2.1S-636.98,121.74-636.98,120.48z"/>
			<path class="st4" d="M-603.5,126.57h14.28v2.07h-14.28V126.57z M-603.5,133.71h14.28v2.07h-14.28V133.71z"/>
			<path class="st6" d="M-563.96,131.49c0-7.14,2.91-10.95,7.62-10.95c4.71,0,7.62,3.81,7.62,10.95c0,7.08-2.91,11.07-7.62,11.07
				C-561.05,142.56-563.96,138.57-563.96,131.49z M-551.3,131.49c0-6.12-2.1-8.73-5.04-8.73s-5.04,2.61-5.04,8.73
				c0,6.06,2.1,8.85,5.04,8.85S-551.3,137.55-551.3,131.49z M-558.44,131.25c0-1.38,0.99-2.19,2.1-2.19c1.11,0,2.1,0.81,2.1,2.19
				c0,1.41-0.99,2.22-2.1,2.22C-557.45,133.47-558.44,132.66-558.44,131.25z"/>
			<path class="st4" d="M-539.78,147.51c2.7-1.17,4.08-2.91,4.2-5.52c-0.21,0.06-0.39,0.06-0.6,0.06c-1.44,0-2.61-0.87-2.61-2.52
				c0-1.62,1.23-2.55,2.67-2.55c1.95,0,3,1.65,3,4.29c0,3.93-2.22,6.63-5.88,7.98L-539.78,147.51z M-539.03,127.83
				c0-1.68,1.17-2.82,2.7-2.82c1.53,0,2.7,1.14,2.7,2.82c0,1.71-1.17,2.82-2.7,2.82C-537.86,130.65-539.03,129.54-539.03,127.83z"/>
			<path class="st4" d="M-495.8,128.22h-7.5v-2.25h10.26v16.2h-2.76V128.22z M-496.91,120.48c0-1.29,0.93-2.16,2.19-2.16
				s2.22,0.87,2.22,2.16c0,1.26-0.96,2.1-2.22,2.1S-496.91,121.74-496.91,120.48z"/>
			<path class="st4" d="M-462.26,132.18v-2.13l12.42-8.4v2.67l-10.02,6.72v0.15l10.02,6.72v2.67L-462.26,132.18z"/>
			<path class="st6" d="M-414.02,136.29h-10.92v-1.83l10.59-13.56h2.94v13.2h3.33v2.19h-3.33v5.88h-2.61V136.29z M-414.02,134.1
				v-6.57c0.03-1.14,0.12-2.58,0.18-3.75h-0.18c-0.66,1.02-1.47,2.07-2.16,3.09l-5.73,7.23H-414.02z"/>
			<path class="st6" d="M-403.88,131.49c0-7.14,2.91-10.95,7.62-10.95c4.71,0,7.62,3.81,7.62,10.95c0,7.08-2.91,11.07-7.62,11.07
				C-400.97,142.56-403.88,138.57-403.88,131.49z M-391.22,131.49c0-6.12-2.1-8.73-5.04-8.73s-5.04,2.61-5.04,8.73
				c0,6.06,2.1,8.85,5.04,8.85S-391.22,137.55-391.22,131.49z M-398.36,131.25c0-1.38,0.99-2.19,2.1-2.19c1.11,0,2.1,0.81,2.1,2.19
				c0,1.41-0.99,2.22-2.1,2.22C-397.37,133.47-398.36,132.66-398.36,131.25z"/>
			<path class="st6" d="M-383.87,131.49c0-7.14,2.91-10.95,7.62-10.95c4.71,0,7.62,3.81,7.62,10.95c0,7.08-2.91,11.07-7.62,11.07
				C-380.96,142.56-383.87,138.57-383.87,131.49z M-371.21,131.49c0-6.12-2.1-8.73-5.04-8.73s-5.04,2.61-5.04,8.73
				c0,6.06,2.1,8.85,5.04,8.85S-371.21,137.55-371.21,131.49z M-378.35,131.25c0-1.38,0.99-2.19,2.1-2.19c1.11,0,2.1,0.81,2.1,2.19
				c0,1.41-0.99,2.22-2.1,2.22C-377.36,133.47-378.35,132.66-378.35,131.25z"/>
			<path class="st4" d="M-359.69,147.51c2.7-1.17,4.08-2.91,4.2-5.52c-0.21,0.06-0.39,0.06-0.6,0.06c-1.44,0-2.61-0.87-2.61-2.52
				c0-1.62,1.23-2.55,2.67-2.55c1.95,0,3,1.65,3,4.29c0,3.93-2.22,6.63-5.88,7.98L-359.69,147.51z M-358.94,127.83
				c0-1.68,1.17-2.82,2.7-2.82c1.53,0,2.7,1.14,2.7,2.82c0,1.71-1.17,2.82-2.7,2.82C-357.77,130.65-358.94,129.54-358.94,127.83z"/>
			<path class="st4" d="M-315.71,128.22h-7.5v-2.25h10.26v16.2h-2.76V128.22z M-316.82,120.48c0-1.29,0.93-2.16,2.19-2.16
				s2.22,0.87,2.22,2.16c0,1.26-0.96,2.1-2.22,2.1S-316.82,121.74-316.82,120.48z"/>
			<path class="st4" d="M-277.31,132.21h-6.03v-2.07h6.03v-6.48h2.22v6.48h6.03v2.07h-6.03v6.51h-2.22V132.21z"/>
			<path class="st4" d="M-263.33,126.57h14.28v2.07h-14.28V126.57z M-263.33,133.71h14.28v2.07h-14.28V133.71z"/>
			<path class="st4" d="M-223.07,125.97h2.28l0.24,2.76h0.12c1.71-1.77,3.57-3.15,6.09-3.15c3.84,0,5.61,2.28,5.61,6.54v10.05h-2.76
				v-9.69c0-3.06-1.08-4.5-3.72-4.5c-1.92,0-3.21,0.96-5.1,2.88v11.31h-2.76V125.97z"/>
			<path class="st4" d="M-203.57,136.02v-10.05h2.76v9.69c0,3.06,1.05,4.5,3.72,4.5c1.86,0,3.24-0.87,5.01-2.97v-11.22h2.79v16.2
				h-2.31l-0.21-2.82h-0.15c-1.62,1.89-3.51,3.21-6.03,3.21C-201.83,142.56-203.57,140.31-203.57,136.02z"/>
			<path class="st4" d="M-184.23,126h2.22l0.21,2.13h0.09c0.81-1.5,1.83-2.55,3.69-2.55c1.59,0,2.58,0.93,3.06,2.79
				c0.93-1.71,1.92-2.79,3.81-2.79c2.25,0,3.57,1.77,3.57,5.01v11.58h-2.76v-11.4c0-1.86-0.48-2.79-1.68-2.79
				c-1.14,0-1.74,0.84-2.61,2.46v11.73h-2.52v-11.4c0-1.86-0.48-2.79-1.68-2.79c-1.14,0-1.86,0.84-2.64,2.46v11.73h-2.76V126z"/>
			<path class="st4" d="M-162.09,146.64c4.47-3.78,6.54-8.13,6.54-13.74c0-5.58-2.07-9.96-6.54-13.71l1.56-1.38
				c4.62,3.6,7.47,8.67,7.47,15.09c0,6.45-2.85,11.52-7.47,15.12L-162.09,146.64z"/>
			<path class="st4" d="M-137.64,142.8c0-2.43,0.33-4.17,0.33-6.42c0-1.29-0.9-2.58-4.8-2.58v-1.77c3.9,0,4.8-1.29,4.8-2.58
				c0-2.1-0.33-4.14-0.33-6.42c0-3.42,2.01-4.44,6.18-4.44h2.04v1.59h-1.74c-3.36,0-4.11,0.84-4.11,3c0,1.92,0.21,3.99,0.21,6.06
				c0,2.13-0.75,3.21-3.03,3.6v0.15c2.28,0.39,3.03,1.47,3.03,3.6c0,2.28-0.21,3.99-0.21,6.03c0,2.16,0.75,3.03,4.11,3.03h1.74v1.59
				h-2.04C-135.63,147.24-137.64,146.22-137.64,142.8z"/>
			<path class="st4" d="M-715.91,198.45h-7.5v-2.25h10.26v16.2h-2.76V198.45z M-717.02,190.71c0-1.29,0.93-2.16,2.19-2.16
				s2.22,0.87,2.22,2.16c0,1.26-0.96,2.1-2.22,2.1S-717.02,191.97-717.02,190.71z"/>
			<path class="st4" d="M-698.36,198.45h-4.62v-2.07l4.62-0.18v-1.35c0-3.93,2.1-6.57,6.54-6.57c1.59,0,3.12,0.3,4.68,0.96
				l-0.66,2.07c-1.29-0.6-2.34-0.78-3.75-0.78c-2.88,0-4.08,1.62-4.08,4.23v1.44h6.78v2.25h-6.78v13.95h-2.73V198.45z"/>
			<path class="st4" d="M-679.49,203.13c0-6.42,2.88-11.49,7.47-15.09l1.56,1.38c-4.47,3.75-6.54,8.13-6.54,13.71
				c0,5.61,2.07,9.96,6.54,13.74l-1.56,1.38C-676.61,214.65-679.49,209.58-679.49,203.13z"/>
			<path class="st4" d="M-655.88,198.45h-7.5v-2.25h10.26v16.2h-2.76V198.45z M-656.99,190.71c0-1.29,0.93-2.16,2.19-2.16
				s2.22,0.87,2.22,2.16c0,1.26-0.96,2.1-2.22,2.1S-656.99,191.97-656.99,190.71z"/>
			<path class="st4" d="M-625.46,196.2c0-3.48,1.92-5.43,4.62-5.43c2.7,0,4.65,1.95,4.65,5.43c0,3.45-1.95,5.52-4.65,5.52
				C-623.54,201.72-625.46,199.65-625.46,196.2z M-625.4,209.82l6.09-6.27l1.08,0.99l-5.55,6.78L-625.4,209.82z M-618.26,196.2
				c0-2.67-1.14-3.78-2.58-3.78c-1.44,0-2.58,1.11-2.58,3.78c0,2.58,1.14,3.87,2.58,3.87C-619.4,200.07-618.26,198.78-618.26,196.2z
				 M-616.55,207.27c0-3.48,1.95-5.43,4.65-5.43c2.7,0,4.62,1.95,4.62,5.43s-1.92,5.52-4.62,5.52
				C-614.6,212.79-616.55,210.75-616.55,207.27z M-614.51,198.39l5.58-6.78l1.62,1.53l-6.09,6.24L-614.51,198.39z M-609.32,207.27
				c0-2.67-1.14-3.75-2.58-3.75s-2.58,1.08-2.58,3.75c0,2.61,1.14,3.84,2.58,3.84S-609.32,209.88-609.32,207.27z"/>
			<path class="st6" d="M-584.42,209.79l1.38-1.8c1.41,1.32,3.36,2.49,6.09,2.49c2.88,0,5.07-1.47,5.07-3.84
				c0-2.52-2.13-4.2-7.71-4.2v-2.13c5.04,0,6.96-1.74,6.96-3.96c0-2.04-1.77-3.33-4.35-3.33c-1.98,0-3.81,0.9-5.19,2.13l-1.47-1.74
				c1.77-1.53,4.05-2.64,6.78-2.64c4.02,0,7.02,1.95,7.02,5.4c0,2.52-1.86,4.17-4.5,5.04v0.12c2.85,0.63,5.28,2.49,5.28,5.4
				c0,3.78-3.51,6.06-7.71,6.06C-580.46,212.79-582.89,211.38-584.42,209.79z"/>
			<path class="st4" d="M-543.47,196.8h14.28v2.07h-14.28V196.8z M-543.47,203.94h14.28v2.07h-14.28V203.94z"/>
			<path class="st4" d="M-523.46,196.8h14.28v2.07h-14.28V196.8z M-523.46,203.94h14.28v2.07h-14.28V203.94z"/>
			<path class="st6" d="M-483.92,201.72c0-7.14,2.91-10.95,7.62-10.95c4.71,0,7.62,3.81,7.62,10.95c0,7.08-2.91,11.07-7.62,11.07
				C-481.01,212.79-483.92,208.8-483.92,201.72z M-471.26,201.72c0-6.12-2.1-8.73-5.04-8.73s-5.04,2.61-5.04,8.73
				c0,6.06,2.1,8.85,5.04,8.85S-471.26,207.78-471.26,201.72z M-478.4,201.48c0-1.38,0.99-2.19,2.1-2.19c1.11,0,2.1,0.81,2.1,2.19
				c0,1.41-0.99,2.22-2.1,2.22C-477.41,203.7-478.4,202.89-478.4,201.48z"/>
			<path class="st4" d="M-462.23,216.87c4.47-3.78,6.54-8.13,6.54-13.74c0-5.58-2.07-9.96-6.54-13.71l1.56-1.38
				c4.62,3.6,7.47,8.67,7.47,15.09c0,6.45-2.85,11.52-7.47,15.12L-462.23,216.87z"/>
			<path class="st5" d="M-418.22,198.45h-4.62v-2.07l4.62-0.18v-1.35c0-3.93,2.1-6.57,6.54-6.57c1.59,0,3.12,0.3,4.68,0.96
				l-0.66,2.07c-1.29-0.6-2.34-0.78-3.75-0.78c-2.88,0-4.08,1.62-4.08,4.23v1.44h6.78v2.25h-6.78v13.95h-2.73V198.45z"/>
			<path class="st5" d="M-395.75,198.45h-7.5v-2.25h10.26v16.2h-2.76V198.45z M-396.86,190.71c0-1.29,0.93-2.16,2.19-2.16
				s2.22,0.87,2.22,2.16c0,1.26-0.96,2.1-2.22,2.1S-396.86,191.97-396.86,190.71z"/>
			<path class="st5" d="M-378.02,206.97v-16.02h-5.55v-2.28h8.31v18.48c0,2.34,1.23,3.33,3.18,3.33c0.93,0,1.92-0.21,3.03-0.69
				l0.72,2.04c-1.53,0.63-2.61,0.96-4.35,0.96C-376.16,212.79-378.02,210.81-378.02,206.97z"/>
			<path class="st5" d="M-358.01,206.97v-16.02h-5.55v-2.28h8.31v18.48c0,2.34,1.23,3.33,3.18,3.33c0.93,0,1.92-0.21,3.03-0.69
				l0.72,2.04c-1.53,0.63-2.61,0.96-4.35,0.96C-356.15,212.79-358.01,210.81-358.01,206.97z"/>
			<path class="st4" d="M-339.32,203.13c0-6.42,2.88-11.49,7.47-15.09l1.56,1.38c-4.47,3.75-6.54,8.13-6.54,13.71
				c0,5.61,2.07,9.96,6.54,13.74l-1.56,1.38C-336.44,214.65-339.32,209.58-339.32,203.13z"/>
			<path class="st6" d="M-323.78,210.75c7.17-6.33,11.13-10.08,11.13-13.59c0-2.43-1.5-4.14-4.59-4.14c-2.01,0-3.72,1.11-5.1,2.55
				l-1.59-1.56c1.92-1.98,4.02-3.24,7.02-3.24c4.26,0,6.93,2.46,6.93,6.27c0,3.96-4.02,7.92-9.75,13.17
				c1.29-0.09,2.67-0.18,3.93-0.18h6.96v2.37h-14.94V210.75z"/>
			<path class="st6" d="M-304.34,209.88l1.35-1.8c1.44,1.26,3.18,2.4,6.03,2.4c2.94,0,5.34-1.86,5.34-4.8s-2.04-4.65-5.22-4.65
				c-1.74,0-2.79,0.45-4.29,1.29l-1.47-0.93l0.72-10.23h12.03v2.37h-9.6l-0.57,6.3c1.2-0.57,2.31-0.9,3.9-0.9
				c4.08,0,7.32,2.07,7.32,6.66s-3.81,7.2-7.89,7.2C-300.47,212.79-302.72,211.35-304.34,209.88z"/>
			<path class="st6" d="M-284.33,209.88l1.35-1.8c1.44,1.26,3.18,2.4,6.03,2.4c2.94,0,5.34-1.86,5.34-4.8s-2.04-4.65-5.22-4.65
				c-1.74,0-2.79,0.45-4.29,1.29l-1.47-0.93l0.72-10.23h12.03v2.37h-9.6l-0.57,6.3c1.2-0.57,2.31-0.9,3.9-0.9
				c4.08,0,7.32,2.07,7.32,6.66s-3.81,7.2-7.89,7.2C-280.46,212.79-282.71,211.35-284.33,209.88z"/>
			<path class="st4" d="M-262.13,216.87c4.47-3.78,6.54-8.13,6.54-13.74c0-5.58-2.07-9.96-6.54-13.71l1.56-1.38
				c4.62,3.6,7.47,8.67,7.47,15.09c0,6.45-2.85,11.52-7.47,15.12L-262.13,216.87z"/>
			<path class="st4" d="M-239.63,217.74c2.7-1.17,4.08-2.91,4.2-5.52c-0.21,0.06-0.39,0.06-0.6,0.06c-1.44,0-2.61-0.87-2.61-2.52
				c0-1.62,1.23-2.55,2.67-2.55c1.95,0,3,1.65,3,4.29c0,3.93-2.22,6.63-5.88,7.98L-239.63,217.74z M-238.88,198.06
				c0-1.68,1.17-2.82,2.7-2.82c1.53,0,2.7,1.14,2.7,2.82c0,1.71-1.17,2.82-2.7,2.82C-237.71,200.88-238.88,199.77-238.88,198.06z"/>
			<path class="st4" d="M-724.16,274.49c0-5.25,3.93-8.46,8.28-8.46c4.65,0,7.38,3.03,7.38,7.59c0,0.63-0.06,1.23-0.12,1.68h-12.72
				c0.33,3.66,2.91,5.49,6.24,5.49c1.95,0,3.48-0.6,4.95-1.53l0.99,1.83c-1.59,1.05-3.66,1.92-6.27,1.92
				C-720.29,283.01-724.16,279.89-724.16,274.49z M-721.28,273.17h10.26c-0.24-3.3-2.04-4.95-4.8-4.95
				C-718.46,268.22-720.77,269.99-721.28,273.17z"/>
			<path class="st4" d="M-698.18,277.19v-16.02h-5.55v-2.28h8.31v18.48c0,2.34,1.23,3.33,3.18,3.33c0.93,0,1.92-0.21,3.03-0.69
				l0.72,2.04c-1.53,0.63-2.61,0.96-4.35,0.96C-696.32,283.01-698.18,281.03-698.18,277.19z"/>
			<path class="st4" d="M-684.02,280.49l1.26-1.83c1.86,1.35,4.05,2.19,7.05,2.19c2.7,0,4.05-1.14,4.05-2.49c0-1.23-0.66-2.1-5.04-3
				c-4.23-0.84-6.33-2.31-6.33-4.74c0-2.58,2.31-4.59,6.75-4.59c2.43,0,4.89,0.96,6.51,2.07l-1.32,1.77
				c-1.53-1.02-3.39-1.68-5.43-1.68c-2.76,0-3.75,1.08-3.75,2.31c0,1.38,1.41,2.01,4.74,2.7c5.37,1.17,6.66,2.52,6.66,5.01
				c0,2.61-2.58,4.8-7.2,4.8C-679.22,283.01-682.04,281.84-684.02,280.49z"/>
			<path class="st4" d="M-664.13,274.49c0-5.25,3.93-8.46,8.28-8.46c4.65,0,7.38,3.03,7.38,7.59c0,0.63-0.06,1.23-0.12,1.68h-12.72
				c0.33,3.66,2.91,5.49,6.24,5.49c1.95,0,3.48-0.6,4.95-1.53l0.99,1.83c-1.59,1.05-3.66,1.92-6.27,1.92
				C-660.26,283.01-664.13,279.89-664.13,274.49z M-661.25,273.17h10.26c-0.24-3.3-2.04-4.95-4.8-4.95
				C-658.43,268.22-660.74,269.99-661.25,273.17z"/>
			<path class="st5" d="M-618.32,268.67h-4.62v-2.07l4.62-0.18v-1.35c0-3.93,2.1-6.57,6.54-6.57c1.59,0,3.12,0.3,4.68,0.96
				l-0.66,2.07c-1.29-0.6-2.34-0.78-3.75-0.78c-2.88,0-4.08,1.62-4.08,4.23v1.44h6.78v2.25h-6.78v13.95h-2.73V268.67z"/>
			<path class="st5" d="M-595.85,268.67h-7.5v-2.25h10.26v16.2h-2.76V268.67z M-596.96,260.93c0-1.29,0.93-2.16,2.19-2.16
				s2.22,0.87,2.22,2.16c0,1.26-0.96,2.1-2.22,2.1S-596.96,262.19-596.96,260.93z"/>
			<path class="st5" d="M-578.12,277.19v-16.02h-5.55v-2.28h8.31v18.48c0,2.34,1.23,3.33,3.18,3.33c0.93,0,1.92-0.21,3.03-0.69
				l0.72,2.04c-1.53,0.63-2.61,0.96-4.35,0.96C-576.26,283.01-578.12,281.03-578.12,277.19z"/>
			<path class="st5" d="M-558.11,277.19v-16.02h-5.55v-2.28h8.31v18.48c0,2.34,1.23,3.33,3.18,3.33c0.93,0,1.92-0.21,3.03-0.69
				l0.72,2.04c-1.53,0.63-2.61,0.96-4.35,0.96C-556.25,283.01-558.11,281.03-558.11,277.19z"/>
			<path class="st4" d="M-539.42,273.35c0-6.42,2.88-11.49,7.47-15.09l1.56,1.38c-4.47,3.75-6.54,8.13-6.54,13.71
				c0,5.61,2.07,9.96,6.54,13.74l-1.56,1.38C-536.54,284.87-539.42,279.8-539.42,273.35z"/>
			<path class="st6" d="M-523.94,271.94c0-7.14,2.91-10.95,7.62-10.95c4.71,0,7.62,3.81,7.62,10.95c0,7.08-2.91,11.07-7.62,11.07
				C-521.03,283.01-523.94,279.02-523.94,271.94z M-511.28,271.94c0-6.12-2.1-8.73-5.04-8.73s-5.04,2.61-5.04,8.73
				c0,6.06,2.1,8.85,5.04,8.85S-511.28,278-511.28,271.94z M-518.42,271.7c0-1.38,0.99-2.19,2.1-2.19c1.11,0,2.1,0.81,2.1,2.19
				c0,1.41-0.99,2.22-2.1,2.22C-517.43,273.92-518.42,273.11-518.42,271.7z"/>
			<path class="st4" d="M-502.25,287.09c4.47-3.78,6.54-8.13,6.54-13.74c0-5.58-2.07-9.96-6.54-13.71l1.56-1.38
				c4.62,3.6,7.47,8.67,7.47,15.09c0,6.45-2.85,11.52-7.47,15.12L-502.25,287.09z"/>
			<path class="st4" d="M-479.75,287.96c2.7-1.17,4.08-2.91,4.2-5.52c-0.21,0.06-0.39,0.06-0.6,0.06c-1.44,0-2.61-0.87-2.61-2.52
				c0-1.62,1.23-2.55,2.67-2.55c1.95,0,3,1.65,3,4.29c0,3.93-2.22,6.63-5.88,7.98L-479.75,287.96z M-479,268.28
				c0-1.68,1.17-2.82,2.7-2.82c1.53,0,2.7,1.14,2.7,2.82c0,1.71-1.17,2.82-2.7,2.82C-477.83,271.1-479,269.99-479,268.28z"/>
			<path class="st5" d="M-724.16,344.72c0-5.25,3.93-8.46,8.28-8.46c4.65,0,7.38,3.03,7.38,7.59c0,0.63-0.06,1.23-0.12,1.68h-12.72
				c0.33,3.66,2.91,5.49,6.24,5.49c1.95,0,3.48-0.6,4.95-1.53l0.99,1.83c-1.59,1.05-3.66,1.92-6.27,1.92
				C-720.29,353.24-724.16,350.12-724.16,344.72z M-721.28,343.4h10.26c-0.24-3.3-2.04-4.95-4.8-4.95
				C-718.46,338.45-720.77,340.22-721.28,343.4z"/>
			<path class="st5" d="M-698.18,347.42V331.4h-5.55v-2.28h8.31v18.48c0,2.34,1.23,3.33,3.18,3.33c0.93,0,1.92-0.21,3.03-0.69
				l0.72,2.04c-1.53,0.63-2.61,0.96-4.35,0.96C-696.32,353.24-698.18,351.26-698.18,347.42z"/>
			<path class="st5" d="M-678.17,347.42V331.4h-5.55v-2.28h8.31v18.48c0,2.34,1.23,3.33,3.18,3.33c0.93,0,1.92-0.21,3.03-0.69
				l0.72,2.04c-1.53,0.63-2.61,0.96-4.35,0.96C-676.31,353.24-678.17,351.26-678.17,347.42z"/>
			<path class="st5" d="M-655.88,338.9h-7.5v-2.25h10.26v16.2h-2.76V338.9z M-656.99,331.16c0-1.29,0.93-2.16,2.19-2.16
				s2.22,0.87,2.22,2.16c0,1.26-0.96,2.1-2.22,2.1S-656.99,332.42-656.99,331.16z"/>
			<path class="st5" d="M-643.28,336.65h2.28l0.24,2.07h0.09c1.5-1.41,3.6-2.46,5.58-2.46c4.35,0,6.72,3.27,6.72,8.25
				c0,5.52-3.48,8.73-7.38,8.73c-1.5,0-3.36-0.78-4.8-2.07h-0.12l0.15,3.03v5.46h-2.76V336.65z M-631.22,344.54
				c0-3.57-1.35-5.97-4.56-5.97c-1.44,0-3.09,0.75-4.74,2.43v8.04c1.53,1.38,3.21,1.89,4.32,1.89
				C-633.35,350.93-631.22,348.53-631.22,344.54z"/>
			<path class="st5" d="M-623.99,350.72l1.26-1.83c1.86,1.35,4.05,2.19,7.05,2.19c2.7,0,4.05-1.14,4.05-2.49c0-1.23-0.66-2.1-5.04-3
				c-4.23-0.84-6.33-2.31-6.33-4.74c0-2.58,2.31-4.59,6.75-4.59c2.43,0,4.89,0.96,6.51,2.07l-1.32,1.77
				c-1.53-1.02-3.39-1.68-5.43-1.68c-2.76,0-3.75,1.08-3.75,2.31c0,1.38,1.41,2.01,4.74,2.7c5.37,1.17,6.66,2.52,6.66,5.01
				c0,2.61-2.58,4.8-7.2,4.8C-619.19,353.24-622.01,352.07-623.99,350.72z"/>
			<path class="st5" d="M-604.1,344.72c0-5.25,3.93-8.46,8.28-8.46c4.65,0,7.38,3.03,7.38,7.59c0,0.63-0.06,1.23-0.12,1.68h-12.72
				c0.33,3.66,2.91,5.49,6.24,5.49c1.95,0,3.48-0.6,4.95-1.53l0.99,1.83c-1.59,1.05-3.66,1.92-6.27,1.92
				C-600.23,353.24-604.1,350.12-604.1,344.72z M-601.22,343.4h10.26c-0.24-3.3-2.04-4.95-4.8-4.95
				C-598.4,338.45-600.71,340.22-601.22,343.4z"/>
			<path class="st4" d="M-579.44,343.58c0-6.42,2.88-11.49,7.47-15.09l1.56,1.38c-4.47,3.75-6.54,8.13-6.54,13.71
				c0,5.61,2.07,9.96,6.54,13.74l-1.56,1.38C-576.56,355.1-579.44,350.03-579.44,343.58z"/>
			<path class="st4" d="M-555.83,338.9h-7.5v-2.25h10.26v16.2h-2.76V338.9z M-556.94,331.16c0-1.29,0.93-2.16,2.19-2.16
				s2.22,0.87,2.22,2.16c0,1.26-0.96,2.1-2.22,2.1S-556.94,332.42-556.94,331.16z"/>
			<path class="st4" d="M-537.44,342.89h-6.03v-2.07h6.03v-6.48h2.22v6.48h6.03v2.07h-6.03v6.51h-2.22V342.89z"/>
			<path class="st4" d="M-523.22,336.65h2.28l0.24,2.76h0.12c1.71-1.77,3.57-3.15,6.09-3.15c3.84,0,5.61,2.28,5.61,6.54v10.05h-2.76
				v-9.69c0-3.06-1.08-4.5-3.72-4.5c-1.92,0-3.21,0.96-5.1,2.88v11.31h-2.76V336.65z"/>
			<path class="st4" d="M-503.72,346.7v-10.05h2.76v9.69c0,3.06,1.05,4.5,3.72,4.5c1.86,0,3.24-0.87,5.01-2.97v-11.22h2.79v16.2
				h-2.31l-0.21-2.82h-0.15c-1.62,1.89-3.51,3.21-6.03,3.21C-501.98,353.24-503.72,350.99-503.72,346.7z"/>
			<path class="st4" d="M-484.37,336.68h2.22l0.21,2.13h0.09c0.81-1.5,1.83-2.55,3.69-2.55c1.59,0,2.58,0.93,3.06,2.79
				c0.93-1.71,1.92-2.79,3.81-2.79c2.25,0,3.57,1.77,3.57,5.01v11.58h-2.76v-11.4c0-1.86-0.48-2.79-1.68-2.79
				c-1.14,0-1.74,0.84-2.61,2.46v11.73h-2.52v-11.4c0-1.86-0.48-2.79-1.68-2.79c-1.14,0-1.86,0.84-2.64,2.46v11.73h-2.76V336.68z"/>
			<path class="st4" d="M-452.09,329.21h2.49l-10.89,28.98h-2.49L-452.09,329.21z"/>
			<path class="st6" d="M-443.84,351.2c7.17-6.33,11.13-10.08,11.13-13.59c0-2.43-1.5-4.14-4.59-4.14c-2.01,0-3.72,1.11-5.1,2.55
				l-1.59-1.56c1.92-1.98,4.02-3.24,7.02-3.24c4.26,0,6.93,2.46,6.93,6.27c0,3.96-4.02,7.92-9.75,13.17
				c1.29-0.09,2.67-0.18,3.93-0.18h6.96v2.37h-14.94V351.2z"/>
			<path class="st4" d="M-419.72,358.19c2.7-1.17,4.08-2.91,4.2-5.52c-0.21,0.06-0.39,0.06-0.6,0.06c-1.44,0-2.61-0.87-2.61-2.52
				c0-1.62,1.23-2.55,2.67-2.55c1.95,0,3,1.65,3,4.29c0,3.93-2.22,6.63-5.88,7.98L-419.72,358.19z"/>
			<path class="st4" d="M-395.75,338.9h-7.5v-2.25h10.26v16.2h-2.76V338.9z M-396.86,331.16c0-1.29,0.93-2.16,2.19-2.16
				s2.22,0.87,2.22,2.16c0,1.26-0.96,2.1-2.22,2.1S-396.86,332.42-396.86,331.16z"/>
			<path class="st4" d="M-377.36,342.89h-6.03v-2.07h6.03v-6.48h2.22v6.48h6.03v2.07h-6.03v6.51h-2.22V342.89z"/>
			<path class="st4" d="M-363.14,336.65h2.28l0.24,2.76h0.12c1.71-1.77,3.57-3.15,6.09-3.15c3.84,0,5.61,2.28,5.61,6.54v10.05h-2.76
				v-9.69c0-3.06-1.08-4.5-3.72-4.5c-1.92,0-3.21,0.96-5.1,2.88v11.31h-2.76V336.65z"/>
			<path class="st4" d="M-343.64,346.7v-10.05h2.76v9.69c0,3.06,1.05,4.5,3.72,4.5c1.86,0,3.24-0.87,5.01-2.97v-11.22h2.79v16.2
				h-2.31l-0.21-2.82h-0.15c-1.62,1.89-3.51,3.21-6.03,3.21C-341.9,353.24-343.64,350.99-343.64,346.7z"/>
			<path class="st4" d="M-324.29,336.68h2.22l0.21,2.13h0.09c0.81-1.5,1.83-2.55,3.69-2.55c1.59,0,2.58,0.93,3.06,2.79
				c0.93-1.71,1.92-2.79,3.81-2.79c2.25,0,3.57,1.77,3.57,5.01v11.58h-2.76v-11.4c0-1.86-0.48-2.79-1.68-2.79
				c-1.14,0-1.74,0.84-2.61,2.46v11.73h-2.52v-11.4c0-1.86-0.48-2.79-1.68-2.79c-1.14,0-1.86,0.84-2.64,2.46v11.73h-2.76V336.68z"/>
			<path class="st4" d="M-292.01,329.21h2.49l-10.89,28.98h-2.49L-292.01,329.21z"/>
			<path class="st6" d="M-283.76,351.2c7.17-6.33,11.13-10.08,11.13-13.59c0-2.43-1.5-4.14-4.59-4.14c-2.01,0-3.72,1.11-5.1,2.55
				l-1.59-1.56c1.92-1.98,4.02-3.24,7.02-3.24c4.26,0,6.93,2.46,6.93,6.27c0,3.96-4.02,7.92-9.75,13.17
				c1.29-0.09,2.67-0.18,3.93-0.18h6.96v2.37h-14.94V351.2z"/>
			<path class="st4" d="M-259.64,358.19c2.7-1.17,4.08-2.91,4.2-5.52c-0.21,0.06-0.39,0.06-0.6,0.06c-1.44,0-2.61-0.87-2.61-2.52
				c0-1.62,1.23-2.55,2.67-2.55c1.95,0,3,1.65,3,4.29c0,3.93-2.22,6.63-5.88,7.98L-259.64,358.19z"/>
			<path class="st6" d="M-244.25,350.24l1.38-1.8c1.41,1.32,3.36,2.49,6.09,2.49c2.88,0,5.07-1.47,5.07-3.84
				c0-2.52-2.13-4.2-7.71-4.2v-2.13c5.04,0,6.96-1.74,6.96-3.96c0-2.04-1.77-3.33-4.35-3.33c-1.98,0-3.81,0.9-5.19,2.13l-1.47-1.74
				c1.77-1.53,4.05-2.64,6.78-2.64c4.02,0,7.02,1.95,7.02,5.4c0,2.52-1.86,4.17-4.5,5.04v0.12c2.85,0.63,5.28,2.49,5.28,5.4
				c0,3.78-3.51,6.06-7.71,6.06C-240.29,353.24-242.72,351.83-244.25,350.24z"/>
			<path class="st6" d="M-223.79,342.17c0-7.14,2.91-10.95,7.62-10.95c4.71,0,7.62,3.81,7.62,10.95c0,7.08-2.91,11.07-7.62,11.07
				C-220.88,353.24-223.79,349.25-223.79,342.17z M-211.14,342.17c0-6.12-2.1-8.73-5.04-8.73s-5.04,2.61-5.04,8.73
				c0,6.06,2.1,8.85,5.04,8.85S-211.14,348.23-211.14,342.17z M-218.27,341.93c0-1.38,0.99-2.19,2.1-2.19c1.11,0,2.1,0.81,2.1,2.19
				c0,1.41-0.99,2.22-2.1,2.22C-217.29,344.15-218.27,343.34-218.27,341.93z"/>
			<path class="st4" d="M-199.62,358.19c2.7-1.17,4.08-2.91,4.2-5.52c-0.21,0.06-0.39,0.06-0.6,0.06c-1.44,0-2.61-0.87-2.61-2.52
				c0-1.62,1.23-2.55,2.67-2.55c1.95,0,3,1.65,3,4.29c0,3.93-2.22,6.63-5.88,7.98L-199.62,358.19z"/>
			<path class="st6" d="M-184.23,350.24l1.38-1.8c1.41,1.32,3.36,2.49,6.09,2.49c2.88,0,5.07-1.47,5.07-3.84
				c0-2.52-2.13-4.2-7.71-4.2v-2.13c5.04,0,6.96-1.74,6.96-3.96c0-2.04-1.77-3.33-4.35-3.33c-1.98,0-3.81,0.9-5.19,2.13l-1.47-1.74
				c1.77-1.53,4.05-2.64,6.78-2.64c4.02,0,7.02,1.95,7.02,5.4c0,2.52-1.86,4.17-4.5,5.04v0.12c2.85,0.63,5.28,2.49,5.28,5.4
				c0,3.78-3.51,6.06-7.71,6.06C-180.27,353.24-182.7,351.83-184.23,350.24z"/>
			<path class="st6" d="M-163.77,342.17c0-7.14,2.91-10.95,7.62-10.95c4.71,0,7.62,3.81,7.62,10.95c0,7.08-2.91,11.07-7.62,11.07
				C-160.86,353.24-163.77,349.25-163.77,342.17z M-151.11,342.17c0-6.12-2.1-8.73-5.04-8.73s-5.04,2.61-5.04,8.73
				c0,6.06,2.1,8.85,5.04,8.85S-151.11,348.23-151.11,342.17z M-158.25,341.93c0-1.38,0.99-2.19,2.1-2.19c1.11,0,2.1,0.81,2.1,2.19
				c0,1.41-0.99,2.22-2.1,2.22C-157.26,344.15-158.25,343.34-158.25,341.93z"/>
			<path class="st4" d="M-142.08,357.32c4.47-3.78,6.54-8.13,6.54-13.74c0-5.58-2.07-9.96-6.54-13.71l1.56-1.38
				c4.62,3.6,7.47,8.67,7.47,15.09c0,6.45-2.85,11.52-7.47,15.12L-142.08,357.32z"/>
			<path class="st4" d="M-119.58,358.19c2.7-1.17,4.08-2.91,4.2-5.52c-0.21,0.06-0.39,0.06-0.6,0.06c-1.44,0-2.61-0.87-2.61-2.52
				c0-1.62,1.23-2.55,2.67-2.55c1.95,0,3,1.65,3,4.29c0,3.93-2.22,6.63-5.88,7.98L-119.58,358.19z M-118.83,338.51
				c0-1.68,1.17-2.82,2.7-2.82c1.53,0,2.7,1.14,2.7,2.82c0,1.71-1.17,2.82-2.7,2.82C-117.66,341.33-118.83,340.22-118.83,338.51z"/>
			<path class="st4" d="M-763.13,391.44h1.71c3.36,0,4.14-0.87,4.14-3.03c0-2.04-0.21-3.75-0.21-6.03c0-2.13,0.72-3.21,3-3.6v-0.15
				c-2.28-0.39-3-1.47-3-3.6c0-2.07,0.21-4.14,0.21-6.06c0-2.16-0.78-3-4.14-3h-1.71v-1.59h2.04c4.17,0,6.12,1.02,6.12,4.44
				c0,2.28-0.3,4.32-0.3,6.42c0,1.29,0.9,2.58,4.8,2.58v1.77c-3.9,0-4.8,1.29-4.8,2.58c0,2.25,0.3,3.99,0.3,6.42
				c0,3.42-1.95,4.44-6.12,4.44h-2.04V391.44z"/>
		</g>
	</g>
</g>
</svg>
